<?xml version="1.0" encoding="utf-8"?>
<!-- Generator: Adobe Illustrator 18.1.1, SVG Export Plug-In . SVG Version: 6.00 Build 0)  -->
<svg version="1.1" id="Layer_1" xmlns="http://www.w3.org/2000/svg" xmlns:xlink="http://www.w3.org/1999/xlink" x="0px" y="0px"
	 viewBox="0 0 50 50" enable-background="new 0 0 50 50" xml:space="preserve">
<g>
	<path fill="#888A8C" d="M30.9,20.8L30.9,20.8l-4.8,12.9h-2.4l-4.7-12.9l-0.1,0l0.3,7.7v2.8l1.9,0.4v2.1H14v-2.1l1.9-0.4V18.7
		L14,18.4v-2.1h1.9h4.6l4.5,12.9H25l4.5-12.9H36v2.1l-1.9,0.4v12.6l1.9,0.4v2.1h-7.2v-2.1l1.9-0.4v-2.8L30.9,20.8z"/>
</g>
<g>
	<path fill="#48CEB0" d="M25,4.1c11.5,0,20.9,9.4,20.9,20.9S36.5,45.9,25,45.9S4.1,36.5,4.1,25S13.5,4.1,25,4.1 M25,2.1
		C12.4,2.1,2.1,12.4,2.1,25S12.4,47.9,25,47.9S47.9,37.6,47.9,25S37.6,2.1,25,2.1L25,2.1z"/>
</g>
</svg>
