<?xml version="1.0" encoding="utf-8"?>
<!-- Generator: Adobe Illustrator 18.1.1, SVG Export Plug-In . SVG Version: 6.00 Build 0)  -->
<svg version="1.1" id="Layer_1" xmlns="http://www.w3.org/2000/svg" xmlns:xlink="http://www.w3.org/1999/xlink" x="0px" y="0px"
	 viewBox="0 0 164 174.5" enable-background="new 0 0 164 174.5" xml:space="preserve">
<path fill="#D1D3D4" d="M149.9,6.1l-1.4,0.2l-0.7,0.2l-0.3,0.2l-0.5,0.6l-0.2,0.2l-1.3,0.3l-0.9,0.6l-2.5,0.5l-11.7,5.6l-11.8,10.1
	l-1.3,0.4l-1.2,0.8l-0.9,0.1l-1.2-0.6l-0.3-0.1l-0.4,0.2l-0.7,0.7l-0.5,0.1l-0.9,0l-4.4-1.1l-1.6,0l-4.8,1.4L97.5,28L96,28.5
	l-2.5,0.1l-0.6,0.4l-0.5,0.5l-1.6,1L90,30.8l-1.7-0.1l-1.5-0.8l-2.5-2.1l-0.3-0.2l-0.6-0.3L83,27.1l-0.3-0.4l-0.3-0.4L82.1,26
	l-0.4-0.1l0.5,1l1.5,1.4l0.8,0.9l-1.8-1.3l-1-0.5l-0.9-0.2l-0.4,0.1l-0.6,0.2l-0.4,0.1l-0.5,0l-0.3-0.1L78,26.8L76.5,27l-1.8,1.2
	L73,28.9l-1.2-1.1l-0.3,0.3L71,28.3l-0.3-0.1l-0.1-0.6l-0.4-0.1L68,27.4l0.6-0.3l1.3-0.1l0.6-0.3l0.5,0.4l0.3-0.2l0.2-0.4l0.3-0.4
	l0.3-0.2l0.4-0.1l0.9-0.1l1.7-0.4l0.8-0.1l0.8,0.4l0.8-0.6l1.2-0.3l2.5-0.1L81,24l-0.2-0.5l-0.4-0.2L79,23.1l-0.4,0.1l-0.6,0.3
	l-0.3-0.2L77.5,23l-0.2-0.2L77,22l-0.5-0.6l-0.6-0.3l0.1,0.3L75.9,22l-0.2,0.7l-0.2,0.4L75,23.6l-0.6,0.3l-1.2,0.3l-0.7,0l-1.3-0.5
	l-0.6-0.1L69.6,23l-1.9-2.3l-0.9-0.9l-1,0l-1.2-0.3l-2.3-1l-1-0.7L59.7,16l-0.8-0.5l-0.4,0l-0.9,0.3l-0.6,0.1l-0.6-0.1l-2.8-0.9
	l-0.2-0.4l0-0.4c-6.5,0.3-13.1,0.5-19.6,0.7c-6.4,0.2-12.8,0.5-19.2,0.7c-3.2,0.1-6.4,0.2-9.7,0.4c0,6.5-0.1,13-0.1,19.5
	c-0.1,6.4-0.1,12.8-0.2,19.2c-0.1,6.3-0.1,12.6-0.1,18.9c0,6.4-0.1,12.9-0.2,19.3c-0.1,6.4-0.1,12.8-0.1,19.2
	c0,6.4-0.1,12.7-0.2,19.1c0,2.9-0.1,5.9-0.1,8.8l2-1.3l0.6-0.6l0.3-0.3l0.4-0.1l0.3,0.2l0.5,0.7l0.2,0.2l0.5,0.3l1.9,1.9l1.5,0.2
	l3.1-1.4l1.6-0.3l0.8,0.5l0.5,0.9l0.4,0.9l0.4,0.4l0.7,0.1l0.9,0.3l1.5,0.8l0.5,0.6l0.4,0.8l0.2,0.9l0.1,0.8l0.2,0.7l0.4,0.5
	l0.5,0.4l0.4,0.4l0.3,0.8l0.2,0.8l0.1,1l0,1.1l0.3,0.8l0.8,0.6l4.1,1.5l0.8,0.1l3.3-0.6l0.9,0.1l1.5,0.7l1.5,0.4l0.6,0.7l0.5,0.8
	l0.6,0.8l2.5,2.5l1.4,1l1.6,0.3l0.7-0.2l0.6-0.5l0.5-0.8l0.2-0.9l0.4-0.3l2.6-0.8l0.8,0.1l0.8,0.3l0.7,0.5l0.6,0.6l0.3,0.2l1.3,0
	l0.5,0.1l1,0.5l0.5,0.3l0.3,0.3l0.9,1.4l0.5,0.5l0.3,0.1l1.3-0.3l0.4-0.4l0.5-0.3l0.9-0.1l1.7,0.3l0.8,0l0.6-0.4l0.3-0.5l0.4-1
	l0.2-0.4l0.3-0.2l1-0.4l0.5-0.5l0.5-0.6l0.6-0.6l0.8-0.2l0.9-0.1l2.2-1.1L74,156l0.4,0.3l0.1,0.7v0.9l0.1,0.9l0.9,3.1l1.1,1.8
	l1.6,0.9l1.7,0.6l1.4,0.9l2.6,2.7l0.4,0.7l0.6,1.5l0.4,0.5l0,0l1.3,0.6l1.6-0.2l3.1-1.1l2.7-0.2l0.7-0.3l0.5-0.8l0.3-0.8l0.8-4.1
	l0.4-1l0.5-0.4l1.8,0.3l0.8-0.2l0.6-0.8l0-0.5l-0.1-0.6l-0.1-0.6l-0.3-0.8l0.1-0.5l0.2-0.7l-0.1-1.2l-0.3-0.8l-0.3-0.6l-0.3-0.8
	l0.1-1.1l0.6-0.6l0.7-0.5l0.4-1.1l0.5-0.8l0.2-0.4l0.2-1.9l0.6-1.4l1-1.8l1.2-1.6l1.2-0.9l0.9,0l0.7,0.5l0.6,0.5l1.1,0.5l0.5,0.6
	l0.3,0.7l0.2,0.7l0.1,0.3l0.1,0.2l0,0.3l-0.1,0.3l-0.2,0.1l-0.2,0.1l-0.1,0.1l-0.1,0.6l-0.2,0.3l-0.1,0.2l0.3,0.5l0.7,0.4l0.8-0.4
	l0.7-0.8l0.4-0.7l0.3-1.1l0.2-0.6l0.4-0.2l0.4,0.2l0.6,0.7l0.4,0.2l0.7-0.2l0-0.5l-0.3-0.7l-0.2-0.8l0.2-1.7l-0.1-0.8l-0.5-0.4
	l-0.2-0.1l-0.3-0.3l-0.2-0.3l-0.1-0.3l-0.2-0.6l0-0.2l0.2,0l1.8-0.7l0.3-0.4l0.1-1.1l-0.1-1.7l0-0.6l0.3-0.7l1.8-2l0.6-1.6l0.7-0.2
	l0.9,0l0.8-0.3l0.2,0.3l0.3-0.3l0.2-0.1l0.2,0.1l0.3,0.3l0.4-0.6l0.3-1.8l0.3-0.8l2.7-2.6l0.6-0.3l1.5,0l0.3,0.4l0.3,0.8l0.5,0.9
	l0.7,0.5l0.9-0.1l1.3-1.2l0.7-0.3l0.8-0.1l0.8-0.2l0.7-0.3l0.5-0.4l1-1.1l0.7-0.5l1.4-0.5l0.6-0.7l0.8-1.5l1.2-1.3l4.1-3.2l2.5-1.4
	l0.1-0.5l0.4-1.3l0-0.2l-0.1-0.5l0-0.2l0.2-0.2l0.6-0.5l0.2-0.9L149,110l-0.4-0.5l-0.6-0.7l-0.2-0.6l0.3-0.4l0.8-0.5l0.2-0.5
	l0.2-0.9l0.1-0.5l0.2-0.5l0.2-0.4l0.7-0.8l0.1-0.4l-0.1-0.5l-0.2-0.5l-0.1-0.5l0.2-0.7l0.4,0.1l0.5,0.3l0.5-0.1l0.2-0.5l0-0.4
	l-0.2-0.4l-0.1-0.3l0.3-0.8l0.3-0.6l0.3-0.7l0.1-1.1l0-2l0.1-0.9l0.4-1.2l0.8-1.7l0.3-0.9l0.3-1.7l0.3-1.1l0.8-1.9l0.3-0.4l1-0.8
	l0.2-0.3l0.4-1.5l0.1-0.3l0-0.6l-0.2-1.1l0-0.2l0.1-0.5l0-0.2l-0.2-0.2l-0.2-0.1l-0.2-0.1l-0.1,0l0.1-1.1l0.7-1.9l0.2-1.1l-0.1-0.7
	l-0.3-0.8l-0.8-1.6l-1.2-1.6l-0.3-0.8l0.4-1l0.7-0.5l0.9-0.3l0.9,0l0.6,0.4l1.6-1.2l0.6-0.2V2.1l-9.5,3.2L149.9,6.1z"/>
</svg>
