<?xml version="1.0" encoding="utf-8"?>
<!-- Generator: Adobe Illustrator 18.1.1, SVG Export Plug-In . SVG Version: 6.00 Build 0)  -->
<svg version="1.1" id="Layer_1" xmlns="http://www.w3.org/2000/svg" xmlns:xlink="http://www.w3.org/1999/xlink" x="0px" y="0px"
	 viewBox="0 0 20 20" enable-background="new 0 0 20 20" xml:space="preserve">
<path fill="#E0E0E0" d="M16.1,2.7l-0.1,0l-0.1,0l0,0l0,0.1l0,0l-0.1,0l-0.1,0.1l-0.2,0l-1.1,0.5l-1.1,0.9l-0.1,0l-0.1,0.1l-0.1,0
	l-0.1-0.1l0,0l0,0l-0.1,0.1l0,0h-0.1l-0.4-0.1h-0.1l-0.4,0.1l-0.2,0.1l-0.1,0l-0.2,0l-0.1,0l0,0l-0.1,0.1l-0.1,0l-0.1,0l-0.1-0.1
	l-0.2-0.2l0,0l-0.1,0l0,0l0,0l0,0l0,0l0,0l0,0.1l0.1,0.1l0.1,0.1l-0.2-0.1l-0.1,0l-0.1,0h0l-0.1,0h0h0l0,0l-0.1,0l-0.1,0L9.3,4.7
	L9.2,4.8L9.1,4.7l0,0l0,0l0,0l0-0.1l0,0H8.7l0.1,0h0.1l0.1,0l0,0l0,0l0,0l0,0l0,0l0,0h0.1l0.2,0h0.1l0.1,0l0.1-0.1l0.1,0l0.2,0
	l0-0.1l0,0l0,0l-0.1,0h0l-0.1,0l0,0l0,0l0,0l0-0.1l0,0L9.4,4.1v0v0.1l0,0.1l0,0l0,0l0,0l-0.1,0H9.2L9,4.3L9,4.3l-0.1,0L8.7,4
	L8.6,3.9H8.6l-0.1,0L8.2,3.8L8.1,3.8L8,3.6l-0.1,0h0l-0.1,0l-0.1,0l0,0L7.5,3.5l0,0v0c-0.6,0-1.2,0-1.8,0.1c-0.6,0-1.1,0-1.7,0.1
	c-0.3,0-0.6,0-0.9,0c0,0.6,0,1.2,0,1.8c0,0.6,0,1.1,0,1.7c0,0.6,0,1.1,0,1.7c0,0.6,0,1.2,0,1.7c0,0.6,0,1.1,0,1.7c0,0.6,0,1.1,0,1.7
	c0,0.3,0,0.5,0,0.8l0.2-0.1l0.1-0.1l0,0l0,0l0,0l0,0.1l0,0l0,0l0.2,0.2l0.1,0L4,14.7l0.1,0l0.1,0l0,0.1l0,0.1l0,0l0.1,0l0.1,0
	L4.6,15l0,0.1l0,0.1l0,0.1l0,0.1l0,0.1l0,0l0,0l0,0l0,0.1l0,0.1l0,0.1v0.1l0,0.1l0.1,0.1l0.4,0.1l0.1,0L5.8,16l0.1,0L6,16.1l0.1,0
	l0,0.1l0,0.1l0,0.1l0.2,0.2l0.1,0.1l0.1,0l0.1,0l0.1,0l0-0.1l0-0.1l0,0l0.2-0.1l0.1,0l0.1,0l0.1,0l0.1,0.1l0,0h0.1l0,0l0.1,0l0,0
	l0,0l0.1,0.1l0,0l0,0l0.1,0l0,0l0,0l0.1,0l0.1,0h0.1l0.1,0l0,0l0-0.1l0,0l0,0l0.1,0l0,0l0-0.1l0.1,0l0.1,0l0.1,0l0.2-0.1l0.1,0l0,0
	l0,0.1v0.1l0,0.1l0.1,0.3l0.1,0.2l0.1,0.1L9.8,17L9.9,17l0.2,0.2l0,0.1l0.1,0.1l0,0l0,0l0.1,0.1l0.1,0l0.3-0.1l0.2,0l0.1,0l0-0.1
	l0-0.1l0.1-0.4l0-0.1l0,0l0.2,0l0.1,0l0-0.1v0l0-0.1l0-0.1l0-0.1v0l0-0.1l0-0.1l0-0.1l0-0.1l0-0.1l0-0.1l0.1,0l0.1,0l0-0.1l0-0.1
	l0,0l0-0.2l0.1-0.1l0.1-0.2l0.1-0.1l0.1-0.1h0.1l0.1,0l0,0l0.1,0l0,0l0,0.1l0,0.1l0,0l0,0v0l0,0l0,0l0,0l0,0l0,0.1l0,0l0,0l0,0
	l0.1,0l0.1,0l0.1-0.1l0-0.1l0-0.1l0,0l0,0l0,0l0.1,0.1l0,0l0.1,0v0l0-0.1l0-0.1l0-0.1l0-0.1l0,0l0,0l0,0l0,0l0,0l0-0.1v0h0l0.2-0.1
	l0,0l0-0.1l0-0.2v-0.1l0-0.1l0.2-0.2l0-0.1l0.1,0h0.1l0.1,0l0,0l0,0l0,0l0,0l0,0l0-0.1l0-0.2l0-0.1l0.2-0.2l0.1,0H14l0,0l0,0.1
	l0,0.1l0.1,0l0.1,0l0.1-0.1l0.1,0l0.1,0l0.1,0l0.1,0l0,0l0.1-0.1l0.1,0l0.1,0l0-0.1l0.1-0.1l0.1-0.1l0.4-0.3l0.2-0.1l0,0l0-0.1v0v0
	v0l0,0l0.1,0l0-0.1l0-0.1l0,0L15.9,12l0,0l0,0l0.1,0l0,0l0-0.1l0,0l0,0l0,0l0.1-0.1l0,0l0,0l0,0l0,0l0-0.1h0l0,0h0l0,0v0l0,0v0
	l0-0.1l0-0.1l0-0.1l0-0.1v-0.2l0-0.1l0-0.1l0.1-0.1l0-0.1l0-0.1l0-0.1l0.1-0.2l0,0l0.1-0.1l0,0l0-0.1l0,0V9.5l0-0.1v0v0v0l0,0l0,0h0
	h0l0-0.1L16.7,9l0-0.1l0-0.1l0-0.1l-0.1-0.1l-0.1-0.1l0-0.1l0-0.1l0.1,0l0.1,0h0.1l0.1,0l0.1-0.1l0,0V2.4L16.1,2.7L16.1,2.7z"/>
</svg>
